<mxfile host="app.diagrams.net" modified="2021-10-31T13:42:10.071Z" agent="5.0 (Windows NT 10.0; Win64; x64) AppleWebKit/537.36 (KHTML, like Gecko) Chrome/94.0.4606.81 Safari/537.36" etag="979xMV81bfXSDARfDfu0" version="15.5.4" type="github">
  <diagram id="gFr691sdQ6GinaGu0FWh" name="Page-1">
    <mxGraphModel dx="1601" dy="831" grid="1" gridSize="10" guides="1" tooltips="1" connect="1" arrows="1" fold="1" page="1" pageScale="1" pageWidth="827" pageHeight="1169" math="0" shadow="0">
      <root>
        <mxCell id="0" />
        <mxCell id="1" parent="0" />
        <mxCell id="bVtT1iExyT5-dV63p8Pk-1" value="" style="group" vertex="1" connectable="0" parent="1">
          <mxGeometry x="13.25" y="130" width="400.75" height="85" as="geometry" />
        </mxCell>
        <mxCell id="rmFUcFzzjlkstGjP6RBZ-2" value="" style="shape=table;html=1;whiteSpace=wrap;startSize=0;container=1;collapsible=0;childLayout=tableLayout;rounded=1;sketch=0;fontSize=16;" parent="bVtT1iExyT5-dV63p8Pk-1" vertex="1">
          <mxGeometry x="0.75" y="45" width="200" height="40" as="geometry" />
        </mxCell>
        <mxCell id="rmFUcFzzjlkstGjP6RBZ-3" value="" style="shape=partialRectangle;html=1;whiteSpace=wrap;collapsible=0;dropTarget=0;pointerEvents=0;fillColor=none;top=0;left=0;bottom=0;right=0;points=[[0,0.5],[1,0.5]];portConstraint=eastwest;" parent="rmFUcFzzjlkstGjP6RBZ-2" vertex="1">
          <mxGeometry width="200" height="40" as="geometry" />
        </mxCell>
        <mxCell id="rmFUcFzzjlkstGjP6RBZ-4" value="&lt;font style=&quot;font-size: 15px&quot; face=&quot;Times New Roman&quot;&gt;1&lt;/font&gt;" style="shape=partialRectangle;html=1;whiteSpace=wrap;connectable=0;fillColor=none;top=0;left=0;bottom=0;right=0;overflow=hidden;pointerEvents=1;" parent="rmFUcFzzjlkstGjP6RBZ-3" vertex="1">
          <mxGeometry width="40" height="40" as="geometry">
            <mxRectangle width="40" height="40" as="alternateBounds" />
          </mxGeometry>
        </mxCell>
        <mxCell id="rmFUcFzzjlkstGjP6RBZ-5" value="&lt;font size=&quot;1&quot; face=&quot;Times New Roman&quot;&gt;&lt;span style=&quot;font-weight: normal ; font-size: 15px&quot;&gt;2&lt;/span&gt;&lt;/font&gt;" style="shape=partialRectangle;html=1;whiteSpace=wrap;connectable=0;fillColor=none;top=0;left=0;bottom=0;right=0;overflow=hidden;pointerEvents=1;fontStyle=1" parent="rmFUcFzzjlkstGjP6RBZ-3" vertex="1">
          <mxGeometry x="40" width="40" height="40" as="geometry">
            <mxRectangle width="40" height="40" as="alternateBounds" />
          </mxGeometry>
        </mxCell>
        <mxCell id="rmFUcFzzjlkstGjP6RBZ-6" value="&lt;font style=&quot;font-size: 20px&quot;&gt;...&lt;/font&gt;" style="shape=partialRectangle;html=1;whiteSpace=wrap;connectable=0;fillColor=none;top=0;left=0;bottom=0;right=0;overflow=hidden;pointerEvents=1;" parent="rmFUcFzzjlkstGjP6RBZ-3" vertex="1">
          <mxGeometry x="80" width="40" height="40" as="geometry">
            <mxRectangle width="40" height="40" as="alternateBounds" />
          </mxGeometry>
        </mxCell>
        <mxCell id="rmFUcFzzjlkstGjP6RBZ-7" value="&lt;font face=&quot;Times New Roman&quot; style=&quot;font-size: 16px&quot;&gt;&lt;span&gt;&lt;i&gt;n-&lt;/i&gt;1&lt;/span&gt;&lt;/font&gt;" style="shape=partialRectangle;html=1;whiteSpace=wrap;connectable=0;fillColor=none;top=0;left=0;bottom=0;right=0;overflow=hidden;pointerEvents=1;" parent="rmFUcFzzjlkstGjP6RBZ-3" vertex="1">
          <mxGeometry x="120" width="36" height="40" as="geometry">
            <mxRectangle width="36" height="40" as="alternateBounds" />
          </mxGeometry>
        </mxCell>
        <mxCell id="rmFUcFzzjlkstGjP6RBZ-8" value="&lt;font style=&quot;font-size: 16px&quot; face=&quot;Times New Roman&quot;&gt;&lt;i&gt;n&lt;/i&gt;&lt;/font&gt;" style="shape=partialRectangle;html=1;whiteSpace=wrap;connectable=0;fillColor=none;top=0;left=0;bottom=0;right=0;overflow=hidden;pointerEvents=1;" parent="rmFUcFzzjlkstGjP6RBZ-3" vertex="1">
          <mxGeometry x="156" width="44" height="40" as="geometry">
            <mxRectangle width="44" height="40" as="alternateBounds" />
          </mxGeometry>
        </mxCell>
        <mxCell id="rmFUcFzzjlkstGjP6RBZ-9" value="" style="shape=table;html=1;whiteSpace=wrap;startSize=0;container=1;collapsible=0;childLayout=tableLayout;rounded=1;sketch=0;fontSize=16;" parent="bVtT1iExyT5-dV63p8Pk-1" vertex="1">
          <mxGeometry x="200.75" y="45" width="200" height="40" as="geometry" />
        </mxCell>
        <mxCell id="rmFUcFzzjlkstGjP6RBZ-10" value="" style="shape=partialRectangle;html=1;whiteSpace=wrap;collapsible=0;dropTarget=0;pointerEvents=0;fillColor=none;top=0;left=0;bottom=0;right=0;points=[[0,0.5],[1,0.5]];portConstraint=eastwest;fontFamily=Times New Roman;" parent="rmFUcFzzjlkstGjP6RBZ-9" vertex="1">
          <mxGeometry width="200" height="40" as="geometry" />
        </mxCell>
        <mxCell id="rmFUcFzzjlkstGjP6RBZ-11" value="&lt;font face=&quot;Times New Roman&quot; style=&quot;font-size: 16px&quot;&gt;&lt;i&gt;C&lt;/i&gt;&lt;sub&gt;1&lt;/sub&gt;&lt;/font&gt;" style="shape=partialRectangle;html=1;whiteSpace=wrap;connectable=0;fillColor=none;top=0;left=0;bottom=0;right=0;overflow=hidden;pointerEvents=1;" parent="rmFUcFzzjlkstGjP6RBZ-10" vertex="1">
          <mxGeometry width="40" height="40" as="geometry">
            <mxRectangle width="40" height="40" as="alternateBounds" />
          </mxGeometry>
        </mxCell>
        <mxCell id="rmFUcFzzjlkstGjP6RBZ-12" value="&lt;i style=&quot;font-family: &amp;#34;times new roman&amp;#34; ; font-size: 16px ; font-weight: 400&quot;&gt;C&lt;/i&gt;&lt;i style=&quot;font-family: &amp;#34;times new roman&amp;#34; ; font-weight: 400 ; font-size: 8.33333px&quot;&gt;&lt;sub&gt;2&lt;/sub&gt;&lt;/i&gt;" style="shape=partialRectangle;html=1;whiteSpace=wrap;connectable=0;fillColor=none;top=0;left=0;bottom=0;right=0;overflow=hidden;pointerEvents=1;fontStyle=1" parent="rmFUcFzzjlkstGjP6RBZ-10" vertex="1">
          <mxGeometry x="40" width="40" height="40" as="geometry">
            <mxRectangle width="40" height="40" as="alternateBounds" />
          </mxGeometry>
        </mxCell>
        <mxCell id="rmFUcFzzjlkstGjP6RBZ-13" value="&lt;i style=&quot;font-family: &amp;#34;times new roman&amp;#34; ; font-size: 16px&quot;&gt;C&lt;/i&gt;&lt;i style=&quot;font-family: &amp;#34;times new roman&amp;#34; ; font-size: 10px&quot;&gt;&lt;sub&gt;3&lt;/sub&gt;&lt;/i&gt;" style="shape=partialRectangle;html=1;whiteSpace=wrap;connectable=0;fillColor=none;top=0;left=0;bottom=0;right=0;overflow=hidden;pointerEvents=1;" parent="rmFUcFzzjlkstGjP6RBZ-10" vertex="1">
          <mxGeometry x="80" width="40" height="40" as="geometry">
            <mxRectangle width="40" height="40" as="alternateBounds" />
          </mxGeometry>
        </mxCell>
        <mxCell id="rmFUcFzzjlkstGjP6RBZ-14" value="&lt;i style=&quot;font-family: &amp;#34;times new roman&amp;#34; ; font-size: 16px&quot;&gt;C&lt;/i&gt;&lt;i style=&quot;font-family: &amp;#34;times new roman&amp;#34; ; font-size: 10px&quot;&gt;&lt;sub&gt;4&lt;/sub&gt;&lt;/i&gt;" style="shape=partialRectangle;html=1;whiteSpace=wrap;connectable=0;fillColor=none;top=0;left=0;bottom=0;right=0;overflow=hidden;pointerEvents=1;" parent="rmFUcFzzjlkstGjP6RBZ-10" vertex="1">
          <mxGeometry x="120" width="40" height="40" as="geometry">
            <mxRectangle width="40" height="40" as="alternateBounds" />
          </mxGeometry>
        </mxCell>
        <mxCell id="rmFUcFzzjlkstGjP6RBZ-15" value="&lt;i style=&quot;font-family: &amp;#34;times new roman&amp;#34; ; font-size: 16px&quot;&gt;C&lt;/i&gt;&lt;i style=&quot;font-family: &amp;#34;times new roman&amp;#34; ; font-size: 10px&quot;&gt;&lt;sub&gt;5&lt;/sub&gt;&lt;/i&gt;" style="shape=partialRectangle;html=1;whiteSpace=wrap;connectable=0;fillColor=none;top=0;left=0;bottom=0;right=0;overflow=hidden;pointerEvents=1;" parent="rmFUcFzzjlkstGjP6RBZ-10" vertex="1">
          <mxGeometry x="160" width="40" height="40" as="geometry">
            <mxRectangle width="40" height="40" as="alternateBounds" />
          </mxGeometry>
        </mxCell>
        <mxCell id="rmFUcFzzjlkstGjP6RBZ-40" value="" style="shape=curlyBracket;whiteSpace=wrap;html=1;rounded=1;flipH=1;fontFamily=Times New Roman;fontSize=16;rotation=-90;" parent="bVtT1iExyT5-dV63p8Pk-1" vertex="1">
          <mxGeometry x="90" y="-68.75" width="20" height="197.5" as="geometry" />
        </mxCell>
        <mxCell id="rmFUcFzzjlkstGjP6RBZ-41" value="" style="shape=curlyBracket;whiteSpace=wrap;html=1;rounded=1;flipH=1;fontFamily=Times New Roman;fontSize=16;rotation=-90;" parent="bVtT1iExyT5-dV63p8Pk-1" vertex="1">
          <mxGeometry x="290.75" y="-68.75" width="20" height="197.5" as="geometry" />
        </mxCell>
        <mxCell id="rmFUcFzzjlkstGjP6RBZ-43" value="&lt;font&gt;&lt;font style=&quot;font-size: 14px ; background-color: rgb(255 , 255 , 255)&quot;&gt;가열로 장입 작업 순번&lt;/font&gt;&lt;br&gt;&lt;/font&gt;" style="text;html=1;align=center;verticalAlign=middle;resizable=0;points=[];autosize=1;strokeColor=none;fillColor=none;fontSize=15;" parent="bVtT1iExyT5-dV63p8Pk-1" vertex="1">
          <mxGeometry x="25" width="150" height="20" as="geometry" />
        </mxCell>
        <mxCell id="rmFUcFzzjlkstGjP6RBZ-44" value="&lt;font&gt;&lt;font style=&quot;font-size: 14px ; background-color: rgb(255 , 255 , 255)&quot;&gt;프레스기 작업 평가 기준&lt;/font&gt;&lt;br&gt;&lt;/font&gt;" style="text;html=1;align=center;verticalAlign=middle;resizable=0;points=[];autosize=1;strokeColor=none;fillColor=none;fontSize=15;" parent="bVtT1iExyT5-dV63p8Pk-1" vertex="1">
          <mxGeometry x="215.75" width="170" height="20" as="geometry" />
        </mxCell>
      </root>
    </mxGraphModel>
  </diagram>
</mxfile>
